<?xml version="1.0" encoding="UTF-8" standalone="no"?>
<!-- Created with Inkscape (http://www.inkscape.org/) -->

<svg
   xmlns:dc="http://purl.org/dc/elements/1.1/"
   xmlns:cc="http://creativecommons.org/ns#"
   xmlns:rdf="http://www.w3.org/1999/02/22-rdf-syntax-ns#"
   xmlns:svg="http://www.w3.org/2000/svg"
   xmlns="http://www.w3.org/2000/svg"
   xmlns:sodipodi="http://sodipodi.sourceforge.net/DTD/sodipodi-0.dtd"
   xmlns:inkscape="http://www.inkscape.org/namespaces/inkscape"
   width="16px"
   height="16px"
   viewBox="0 0 16 16"
   version="1.1"
   id="SVGRoot"
   inkscape:version="0.92.5 (2060ec1f9f, 2020-04-08)"
   sodipodi:docname="clock.svg">
  <defs
     id="defs74" />
  <sodipodi:namedview
     id="base"
     pagecolor="#ffffff"
     bordercolor="#666666"
     borderopacity="1.0"
     inkscape:pageopacity="0.0"
     inkscape:pageshadow="2"
     inkscape:zoom="32"
     inkscape:cx="10.716606"
     inkscape:cy="5.767555"
     inkscape:document-units="px"
     inkscape:current-layer="layer1"
     showgrid="false"
     inkscape:window-width="1848"
     inkscape:window-height="1016"
     inkscape:window-x="72"
     inkscape:window-y="27"
     inkscape:window-maximized="1"
     inkscape:grid-bbox="true" />
  <metadata
     id="metadata77">
    <rdf:RDF>
      <cc:Work
         rdf:about="">
        <dc:format>image/svg+xml</dc:format>
        <dc:type
           rdf:resource="http://purl.org/dc/dcmitype/StillImage" />
        <dc:title></dc:title>
      </cc:Work>
    </rdf:RDF>
  </metadata>
  <g
     inkscape:label="Layer 1"
     inkscape:groupmode="layer"
     id="layer1">
    <path
       inkscape:connector-curvature="0"
       id="path24"
       style="fill:#3b3e41;fill-opacity:1;fill-rule:evenodd;stroke:none;stroke-width:0.02470553"
       d="M 3.0797062,1.4395056 C 2.6972641,1.6603736 2.3993154,1.8681472 2.3919037,1.9180524 l -0.0015,10e-4 0.00225,0.00443 2.408e-4,4.998e-4 2.406e-4,2.418e-4 1.0055168,1.7414931 C 3.4097662,3.6847448 3.519211,3.6442256 3.6830087,3.5646723 L 3.784795,3.7410703 C 4.0679267,3.5182286 4.3685932,3.3166311 4.684577,3.1387516 L 4.6183687,3.0246119 C 4.7693203,2.9223306 4.859248,2.8477205 4.848378,2.8289447 l -1.0084801,-1.7469285 -0.00201,0.00124 C 3.7911947,1.0647454 3.4621205,1.2186569 3.0796793,1.4395241 Z M 8.1263043,0.0992311 c 0.8315878,0 1.5124719,0.05855109 1.5710243,0.13266894 h 0.00393 v 0.0106211 1.63254116 c 0,0.056578 -0.4073937,0.1049983 -0.9850087,0.1250098 v 0.2633648 c -0.1944343,-0.016301 -0.3910894,-0.024953 -0.589969,-0.024953 -0.1986323,0 -0.3952891,0.00865 -0.5897214,0.024953 V 2.0000762 C 6.9589443,1.9800633 6.5510566,1.9316443 6.5510566,1.8750664 V 0.24252515 0.23190404 h 0.00443 c 0.058307,-0.0741163 0.7391891,-0.1326689 1.5707772,-0.1326689 z m 0,3.803169 c -2.9592281,0 -5.3583821,2.399154 -5.3583821,5.3586285 0,2.9594764 2.399154,5.3583834 5.3583821,5.3583834 2.9594747,0 5.3586287,-2.398907 5.3586287,-5.3583834 0,-2.9594745 -2.399154,-5.3586285 -5.3586287,-5.3586285 z m 0,-1.2508407 c 3.6504897,0 6.6094687,2.9592279 6.6094687,6.6094692 0,3.6502424 -2.958979,6.6094704 -6.6094687,6.6094704 -3.6502423,0 -6.6094703,-2.959228 -6.6094703,-6.6094704 0,-3.6502413 2.959228,-6.6094692 6.6094703,-6.6094692 z M 3.7050028,9.2610286 c 0,0.2001152 -0.162069,0.3624304 -0.36243,0.3624304 -0.2001152,0 -0.3626773,-0.1623152 -0.3626773,-0.3624304 0,-0.2003614 0.1625621,-0.3624292 0.3626773,-0.3624292 0.200361,0 0.36243,0.1620678 0.36243,0.3624292 z m 9.5677092,0 c 0,0.2001152 -0.162315,0.3624304 -0.362182,0.3624304 -0.200362,0 -0.362678,-0.1623152 -0.362678,-0.3624304 0,-0.2003614 0.162316,-0.3624292 0.362678,-0.3624292 0.199867,0 0.362182,0.1620678 0.362182,0.3624292 z M 8.1263043,13.682329 c 0.2003617,0 0.3626765,0.162318 0.3626765,0.362679 0,0.200114 -0.1623148,0.362429 -0.3626765,0.362429 -0.2001152,0 -0.3624308,-0.162315 -0.3624308,-0.362429 0,-0.200361 0.1623156,-0.362679 0.3624308,-0.362679 z m 0,-9.5679555 c 0.2003617,0 0.3626765,0.162562 0.3626765,0.3626773 0,0.2001144 -0.1623148,0.3624299 -0.3626765,0.3624299 -0.2001152,0 -0.3624308,-0.1623155 -0.3624308,-0.3624299 0,-0.2001153 0.1623156,-0.3626773 0.3624308,-0.3626773 z M 5.7607492,5.1636168 C 5.6616801,5.2209304 5.5344467,5.1868399 5.4773771,5.0875275 5.4198127,4.988211 5.4539033,4.8614724 5.553224,4.803908 5.652541,4.746595 5.7792792,4.780685 5.8368435,4.879997 c 0.057313,0.099315 0.023474,0.2263025 -0.076089,0.2836187 z m 4.9388828,8.5542892 c -0.09931,0.05732 -0.226302,0.02322 -0.28362,-0.07609 -0.05731,-0.09931 -0.02322,-0.226056 0.07609,-0.283618 0.09931,-0.05731 0.226304,-0.02322 0.283621,0.07609 0.05706,0.09931 0.02322,0.226303 -0.07609,0.283619 z M 4.0288923,6.895475 C 3.9718216,6.9945434 3.8445885,7.0286371 3.7455194,6.971325 3.6462037,6.9140127 3.6121099,6.787022 3.6694302,6.6877054 c 0.057313,-0.099317 0.1843029,-0.133163 0.2836195,-0.075846 0.099317,0.057072 0.1334096,0.1843038 0.075846,0.2836195 z m 8.5542887,4.938882 c -0.05707,0.09906 -0.184303,0.133163 -0.283372,0.07586 -0.09932,-0.05731 -0.133409,-0.184303 -0.07609,-0.28362 0.05731,-0.09931 0.184303,-0.133409 0.283619,-0.07609 0.09932,0.05756 0.13341,0.184551 0.07586,0.283868 z M 4.0288923,11.626583 c 0.057564,0.09931 0.023474,0.226303 -0.075846,0.28362 -0.099317,0.05731 -0.2263026,0.02322 -0.2836196,-0.07585 -0.057313,-0.09931 -0.023223,-0.226303 0.076089,-0.283867 0.099069,-0.05731 0.2263027,-0.02322 0.2833729,0.07609 z M 12.583181,6.6877011 c 0.05756,0.099317 0.02348,0.2263024 -0.07584,0.2836192 -0.09931,0.057312 -0.226303,0.023218 -0.283619,-0.07585 -0.05731,-0.099315 -0.02322,-0.2265492 0.07609,-0.2836197 0.09906,-0.057313 0.226302,-0.023474 0.283372,0.075846 z M 5.7607492,13.358195 c 0.099564,0.05756 0.1334104,0.184302 0.076089,0.283618 -0.057564,0.09931 -0.1843031,0.133411 -0.2836195,0.07609 -0.099317,-0.05731 -0.1334096,-0.184302 -0.075846,-0.283619 0.05707,-0.09932 0.1843029,-0.133409 0.283372,-0.07609 z M 10.699632,4.8039047 c 0.09931,0.057564 0.133162,0.1843029 0.07609,0.2836195 -0.05731,0.099317 -0.184307,0.1334095 -0.283624,0.076089 -0.09931,-0.057313 -0.133409,-0.1843028 -0.07609,-0.2836186 0.05731,-0.099316 0.184303,-0.1334103 0.28362,-0.07609 z M 6.7944285,4.5803198 C 6.7143852,4.5588271 6.666701,4.4763093 6.6881953,4.3962634 6.7096883,4.3159686 6.7919582,4.2682892 6.8722517,4.2900296 6.9522955,4.3115222 6.9999784,4.3937925 6.9784854,4.4740852 6.9569929,4.554379 6.8744753,4.6018127 6.7944285,4.5803198 Z m 2.5861749,9.6517092 c -0.080294,-0.0215 -0.1277277,-0.104015 -0.1062338,-0.184056 0.021493,-0.08031 0.1037628,-0.127729 0.1840555,-0.106234 0.080044,0.0215 0.1277276,0.10376 0.1062338,0.184055 -0.021492,0.08004 -0.1037629,0.127728 -0.1840564,0.106233 z M 4.6326955,5.8734067 C 4.5524015,5.8948997 4.4701326,5.8472157 4.4486391,5.7671734 4.4268951,5.6868794 4.4745791,5.6046105 4.5546256,5.5831171 4.6349196,5.5616241 4.7174351,5.6090571 4.738682,5.6893508 4.760175,5.7693938 4.712742,5.851913 4.6326955,5.8734067 Z m 7.0652855,7.0655353 c 0.0803,-0.0215 0.127975,-0.104015 0.106234,-0.184057 -0.0215,-0.08029 -0.103761,-0.127727 -0.184057,-0.106234 -0.08004,0.02126 -0.127726,0.103761 -0.106234,0.184057 0.0215,0.08005 0.104015,0.127728 0.184057,0.106234 z M 3.4068065,8.0741756 c -0.058551,0.058549 -0.1536683,0.058549 -0.2124674,0 -0.058802,-0.058803 -0.058802,-0.1539154 0,-0.2124676 0.058802,-0.058803 0.1539159,-0.058803 0.2124674,0 0.058802,0.058549 0.058802,0.153668 0,0.2124676 z M 13.058516,10.66035 c -0.05855,0.05881 -0.153917,0.05881 -0.212469,0 -0.05881,-0.05881 -0.05881,-0.153915 0,-0.212715 0.05855,-0.05855 0.153917,-0.05855 0.212469,0 0.05881,0.05881 0.05881,0.153916 0,0.212715 z M 3.4455943,10.59291 c -0.021493,0.08029 -0.1037628,0.127726 -0.1838088,0.106234 -0.080295,-0.0215 -0.127975,-0.103761 -0.1064811,-0.184057 0.021493,-0.0803 0.1040101,-0.127726 0.1840564,-0.106234 0.080295,0.0215 0.1279741,0.104015 0.1062335,0.184057 z M 13.097303,8.0067278 c -0.02126,0.080299 -0.10376,0.1277267 -0.184055,0.1062337 -0.08005,-0.021497 -0.127729,-0.1037605 -0.106234,-0.1840553 0.02173,-0.080288 0.104015,-0.1277279 0.184304,-0.1062338 0.08005,0.021497 0.12748,0.1037606 0.105991,0.1840565 z M 4.7386822,12.754635 c 0.021493,0.0803 -0.02594,0.162809 -0.1059865,0.184305 -0.080295,0.0215 -0.1625629,-0.02618 -0.1840564,-0.106234 -0.021743,-0.0803 0.02594,-0.16281 0.1059865,-0.184303 0.080294,-0.02126 0.1628095,0.02618 0.1840564,0.106232 z M 11.804216,5.6893488 c 0.02173,0.080043 -0.02594,0.1625622 -0.106233,0.1840556 -0.08005,0.021492 -0.162563,-0.026191 -0.184055,-0.1062327 -0.0215,-0.080294 0.02618,-0.1625629 0.106234,-0.1840564 0.08029,-0.021493 0.162561,0.02594 0.184056,0.1062337 z M 6.9396972,13.980527 c 0.058551,0.0588 0.058551,0.153914 0,0.212467 -0.058802,0.05881 -0.1539149,0.05881 -0.212714,0 -0.058551,-0.05855 -0.058551,-0.153669 0,-0.212467 0.058802,-0.05855 0.1539149,-0.05855 0.212714,0 z m 2.585928,-9.65171 c 0.058802,0.058802 0.058802,0.1536684 0,0.2124683 -0.058551,0.058802 -0.1539156,0.058802 -0.2124673,0 -0.058551,-0.058802 -0.058551,-0.1536691 0,-0.2124683 0.058551,-0.058802 0.1539149,-0.058802 0.2124673,0 z M 8.1263043,9.7961514 c 0.4054175,0 0.6324608,-0.4066541 0.4946039,-0.7401787 C 8.5798963,8.957644 8.5117099,8.8738935 8.4215353,8.8141058 8.3619984,8.7748229 8.2950424,8.7478946 8.2243852,8.7348003 8.1169159,8.7152802 8.0082112,8.7268259 7.9054362,8.773332 7.7226154,8.8563474 7.5909354,9.0399058 7.5909354,9.2610194 c 0,0.3004191 0.2443376,0.5351227 0.5353689,0.5351227 z m 0.2208672,-1.222677 c 0.1138927,0.036567 0.2154316,0.1008022 0.2969605,0.1843028 l 3.199119,-1.5801655 0.01383,0.023472 -3.0106159,2.0090532 c 0.00124,0.016804 0.00175,0.033851 0.00175,0.050898 0,0.3987477 -0.3229015,0.7218952 -0.7218954,0.7218952 -0.1121639,0 -0.2181503,-0.025449 -0.3130196,-0.071147 L 6.0063483,13.041475 5.8573739,12.955501 7.6682896,9.8188878 C 7.5072096,9.6867104 7.4046812,9.4858555 7.4046812,9.2610344 c 0,-0.3216659 0.2102446,-0.5944147 0.5010284,-0.6875542 l 0.207032,-2.1318405 h 0.027419 z m 4.1208815,-4.8324017 0.10179,-0.1763972 c 0.163797,0.07955 0.273242,0.1200684 0.284113,0.1010459 l 1.00848,-1.7464345 -0.002,-0.00125 C 13.853489,1.8681262 13.555562,1.6603552 13.172874,1.4394881 12.790185,1.2186201 12.4616,1.0647052 12.414907,1.0832343 l -0.002,-0.00124 -1.00848,1.7469277 c -0.01087,0.018776 0.07905,0.093635 0.229762,0.195668 l -0.06597,0.11414 c 0.315495,0.1778733 0.616408,0.3792234 0.899782,0.6023142 v 0" />
  </g>
</svg>
